# xmcd
#
# Track frame offsets:
#	150
#	10112
#	23985
#	42400
#	63162
#	73575
#	90532
#
# Disc length: 1268 seconds
#
# Revision: 1
# Processed by: cddbd v1.5.1PL0 Copyright (c) Steve Scherf et al.
# Submitted via: CDex 1.50Beta5
#
DISCID=5104f207
DTITLE=Ｍｏｌｍｏｔｔ - Ｌｉｖｅ　Ａｌｉｖｅ
DYEAR=1900
DGENRE=Rock
TTITLE0=Ｌｅａｒｎｉｎｇ　Ｗａｒｎｉｎｇ
TTITLE1=Ｐｒｅｔｔｙ　Ｇｉｒｌ
TTITLE2=Ｂｌｏｏｄｙ　Ｐｕｎｋ
TTITLE3=Ｍｅｍｏｒｙ　Ｃａｒｄ
TTITLE4=Ｎｏ　Ｓｉｄｅ
TTITLE5=Ｌｉｖｅ　Ａｌｉｖｅ
TTITLE6=Ｃｏｕｎｔ　Ｄｏｗｎ
EXTD=
EXTT0=
EXTT1=
EXTT2=
EXTT3=
EXTT4=
EXTT5=
EXTT6=
PLAYORDER=
